<svg xmlns="http://www.w3.org/2000/svg" xmlns:xlink="http://www.w3.org/1999/xlink" width="512" height="512" viewBox="0 0 512 512"><title>Outlines</title><defs><path id="a" d="M0 0h512v512H0z"/></defs><g fill="none" fill-rule="evenodd"><mask id="b" fill="#fff"><use xlink:href="#a"/></mask><g fill="#000" mask="url(#b)"><path d="M330.889 88.064c15.528 0 23.998 12.698 18.822 28.688l-32.939 96.88c-7.058 21.163-30.586 39.034-52.23 39.034 21.644 0 32.938 17.401 25.88 39.034L255.6 394.224c-5.177 15.99-22.587 28.688-38.115 28.688H2.443l97.875-289.23c2.823-7.995-1.412-14.108-9.411-14.108H-51.2l10.823-31.51ZM192.546 268.186h-46.114l-41.879 123.216h46.114c8 0 16.47-6.584 18.822-14.108l32.469-95c2.352-7.524-1.883-14.108-9.412-14.108m50.35-148.612H196.78l-39.526 117.102h45.644c7.999 0 16.469-6.584 19.292-14.108l30.116-88.886c2.352-7.995-1.883-14.108-9.411-14.108"/><path d="M553.984 236.544h-86.9l-50.26 149.66c-2.818 8-11.273 14.118-19.258 14.118h-10.334c-7.986 0-12.213-6.118-9.395-14.119l40.866-120.95c5.167-16.002-3.288-28.709-18.789-28.709H254.3l-7.516 22.59h79.853c3.758 0 6.107 2.824 4.697 6.589l-43.214 128.48c-5.637 16.002 2.818 28.709 18.789 28.709h155.948c15.501 0 32.881-12.707 38.048-28.708z"/><path d="M772.22 236.544c15.538 0 24.013 12.707 18.834 28.708l-24.483 72.006c-5.18 15.06-20.717 27.296-35.313 28.238l14.596 57.416h-72.98c-10.358 0-17.891-5.648-19.775-14.59l-8.004-43.297H630.97l-19.775 57.887H524.09l53.205-157.19c1.412-3.764-.942-6.588-4.709-6.588h-80.042l7.533-22.59Zm-80.512 22.59h-24.955l-27.779 81.889h24.954c8.005 0 16.48-6.589 18.834-14.119l18.362-53.651c2.355-7.53-1.883-14.119-9.416-14.119"/></g></g></svg>
<svg width="450" height="90" viewBox="0 0 450 90" xmlns="http://www.w3.org/2000/svg"><g fill="#065886" fill-rule="evenodd"><path d="M101.889.41c4.12 0 6.368 3.37 4.994 7.615l-8.74 25.72c-1.872 5.62-8.115 10.364-13.859 10.364 5.744 0 8.74 4.62 6.867 10.363L81.912 81.69c-1.373 4.245-5.993 7.616-10.113 7.616h-57.06L40.71 12.52c.75-2.122-.374-3.745-2.496-3.745H.506L3.378.409ZM65.182 48.228H52.946L41.834 80.94h12.235c2.123 0 4.37-1.748 4.995-3.746l8.615-25.22c.624-1.998-.5-3.746-2.497-3.746ZM78.54 8.775H66.305L55.817 39.864h12.111c2.123 0 4.37-1.748 5.12-3.746l7.99-23.598c.624-2.122-.5-3.745-2.497-3.745Z"/><path d="M161.32 39.864h-23.098l-13.36 39.704c-.749 2.122-2.996 3.745-5.119 3.745h-2.746c-2.123 0-3.247-1.623-2.498-3.745l10.863-32.088c1.373-4.245-.874-7.616-4.994-7.616H81.662l-1.997 5.993h21.225c.999 0 1.623.749 1.249 1.748L90.652 81.69c-1.498 4.245.75 7.616 4.994 7.616h41.452c4.12 0 8.74-3.37 10.114-7.616l14.108-41.826Z"/><path d="M219.128 39.864c4.12 0 6.368 3.37 4.995 7.616l-6.493 19.103c-1.373 3.995-5.494 7.241-9.364 7.491l3.87 15.232h-19.352c-2.747 0-4.745-1.498-5.244-3.87l-2.123-11.487h-3.745l-5.244 15.357h-23.099l14.11-41.701c.374-1-.25-1.748-1.25-1.748h-21.225l1.998-5.993Zm-21.35 5.993h-6.617l-7.367 21.725h6.618c2.122 0 4.37-1.748 4.994-3.746l4.87-14.234c.623-1.997-.5-3.745-2.498-3.745Z"/><path d="M284.428 39.864c4.12 0 6.367 3.37 4.994 7.616l-6.493 19.103c-1.373 3.995-5.493 7.241-9.364 7.491l3.87 15.232h-19.352c-2.747 0-4.744-1.498-5.244-3.87l-2.122-11.487h-3.746l-5.244 15.357H218.63l14.109-41.701c.374-1-.25-1.748-1.249-1.748h-21.225l1.997-5.993Zm-21.35 5.993h-6.618l-7.366 21.725h6.617c2.123 0 4.37-1.748 4.994-3.746l4.87-14.234c.624-1.997-.5-3.745-2.498-3.745ZM349.727 39.864c4.12 0 6.368 3.37 4.994 7.616L343.11 81.69c-1.374 4.245-5.993 7.616-10.113 7.616h-41.452c-4.246 0-6.493-3.37-4.995-7.616l11.487-34.21c1.498-4.245 5.993-7.616 10.238-7.616Zm-21.35 5.993h-2.872c-1.997 0-4.37 1.748-4.994 3.745l-10.113 29.966c-.75 2.122.374 3.745 2.497 3.745h2.747c2.122 0 4.37-1.623 5.119-3.745l10.113-29.966c.624-1.997-.5-3.745-2.497-3.745Z"/><path d="M449.237 39.864h-21.85l-13.484 39.704c-.624 2.122-2.997 3.745-4.994 3.745h-4.995l14.733-43.45h-21.974l-13.485 39.705c-.624 2.122-2.871 3.745-4.994 3.745H373.2l12.111-35.833c1.373-4.245-.75-7.616-4.994-7.616H342.86l-1.998 5.993h21.226c.999 0 1.623.749 1.248 1.748l-14.108 41.701h75.787c4.12 0 8.74-3.37 10.113-7.616l14.109-41.826ZM273.585 74.098l2.07 8.156c.136.54.695.978 1.254.978h9.108l1.507-4.416 4.01 4.126-.171 6.351h-19.96l2.182-15.195Z"/></g></svg>
